<?xml version="1.0" standalone="no"?>
<!DOCTYPE svg PUBLIC "-//W3C//DTD SVG 20010904//EN"
 "http://www.w3.org/TR/2001/REC-SVG-20010904/DTD/svg10.dtd">
<svg version="1.0" xmlns="http://www.w3.org/2000/svg"
 width="200.000000pt" height="200.000000pt" viewBox="0 0 200.000000 200.000000"
 preserveAspectRatio="xMidYMid meet">
<metadata>
Created by potrace 1.11, written by Peter Selinger 2001-2013
</metadata>
<g transform="translate(0.000000,200.000000) scale(0.100000,-0.100000)"
fill="#000000" stroke="none">
<path d="M451 1987 c-15 -15 -14 -100 1 -131 6 -14 22 -33 35 -41 30 -20 31
-68 2 -93 -47 -39 -49 -55 -49 -342 l0 -270 35 -70 c19 -38 35 -84 35 -101 0
-51 38 -106 91 -133 41 -20 55 -22 94 -15 79 15 129 67 138 145 3 22 19 68 36
103 27 52 32 74 32 131 l0 68 56 -29 c66 -35 121 -37 194 -9 l51 19 54 -34
c282 -181 172 -621 -163 -652 l-63 -6 0 47 c0 33 -6 52 -20 66 -19 19 -33 20
-339 20 -277 0 -322 -2 -335 -16 -9 -8 -17 -21 -17 -27 -1 -7 -3 -28 -5 -47
-6 -44 2 -74 22 -94 13 -14 48 -16 223 -16 l208 0 -2 -63 -1 -62 -171 -2
c-185 -2 -218 -9 -240 -53 -14 -28 -17 -208 -4 -229 8 -12 110 -14 643 -14
349 0 640 3 646 7 8 5 12 45 12 121 l0 113 -31 26 c-28 24 -39 26 -117 26
l-87 1 34 27 c217 171 305 417 246 692 -24 112 -110 249 -204 326 -64 53 -155
109 -196 120 -11 3 -34 25 -50 47 -67 93 -189 119 -294 64 -45 -23 -52 -24
-50 -9 5 50 -3 76 -33 105 -43 44 -44 83 -1 123 32 30 36 42 35 112 -1 59 -2
60 -232 60 -133 -1 -213 -5 -219 -11z m377 -84 l-3 -28 -155 0 -155 0 -3 28
-3 27 161 0 161 0 -3 -27z m-60 -135 c4 -32 9 -30 -88 -34 -97 -3 -105 0 -105
35 l0 29 95 -1 95 -2 3 -27z m56 -107 c5 -8 9 -291 7 -458 l-1 -53 -160 0
-160 0 0 248 c0 180 3 251 12 260 14 14 294 17 302 3z m304 -105 c35 -19 78
-65 87 -95 33 -108 -42 -211 -155 -211 -175 0 -215 251 -50 313 29 11 91 7
118 -7z m205 -152 c222 -113 348 -366 307 -616 -27 -168 -152 -339 -307 -421
l-72 -38 -213 3 -212 3 -1 62 -1 63 127 0 c69 0 151 5 180 10 154 29 289 152
329 300 49 179 -24 373 -178 475 l-40 27 19 41 c10 23 19 57 19 75 0 37 1 37
43 16z m-539 -356 l-15 -33 -106 1 c-91 1 -108 3 -119 19 -31 42 -21 45 121
45 l135 0 -16 -32z m-37 -130 c-17 -44 -67 -69 -110 -57 -36 10 -67 42 -67 70
0 17 9 19 95 19 l95 0 -13 -32z m208 -354 l0 -29 -291 -3 c-259 -2 -292 -1
-298 14 -3 8 -2 23 3 32 8 15 37 17 298 16 l288 0 0 -30z m610 -306 c12 -11
12 -138 1 -146 -6 -5 -270 -8 -586 -8 l-575 1 -3 73 c-3 65 -1 73 18 80 25 9
1136 10 1145 0z"/>
<path d="M590 1600 c-11 -7 -15 -34 -16 -110 -1 -90 1 -102 18 -111 37 -20 48
5 48 112 0 84 -3 100 -18 108 -11 6 -24 6 -32 1z"/>
<path d="M579 1303 c-11 -75 -1 -97 39 -86 22 5 30 41 16 77 -6 16 -53 23 -55
9z"/>
<path d="M1021 1498 c-29 -10 -55 -56 -55 -96 0 -43 49 -92 92 -92 45 0 90 34
98 75 15 83 -55 143 -135 113z m67 -81 c6 -28 -16 -49 -39 -36 -22 11 -24 30
-7 47 17 17 42 11 46 -11z"/>
</g>
</svg>
